<!DOCTYPE svg PUBLIC "-//W3C//DTD SVG 1.1//EN" "http://www.w3.org/Graphics/SVG/1.1/DTD/svg11.dtd">

<!-- Uploaded to: SVG Repo, www.svgrepo.com, Transformed by: SVG Repo Mixer Tools -->
<svg width="800px" height="800px" viewBox="0 0 512 512" version="1.1" xmlns="http://www.w3.org/2000/svg" xmlns:xlink="http://www.w3.org/1999/xlink" fill="#000000" stroke="#000000">

<g id="SVGRepo_bgCarrier" stroke-width="0"/>

<g id="SVGRepo_tracerCarrier" stroke-linecap="round" stroke-linejoin="round"/>

<g id="SVGRepo_iconCarrier"> <title>about</title> <g id="Page-1" stroke="none" stroke-width="1" fill="none" fill-rule="evenodd"> <g id="about-white" fill="#cccccc" transform="translate(42.666667, 42.666667)"> <path d="M213.333333,3.55271368e-14 C95.51296,3.55271368e-14 3.55271368e-14,95.51168 3.55271368e-14,213.333333 C3.55271368e-14,331.153707 95.51296,426.666667 213.333333,426.666667 C331.154987,426.666667 426.666667,331.153707 426.666667,213.333333 C426.666667,95.51168 331.154987,3.55271368e-14 213.333333,3.55271368e-14 Z M213.333333,384 C119.227947,384 42.6666667,307.43872 42.6666667,213.333333 C42.6666667,119.227947 119.227947,42.6666667 213.333333,42.6666667 C307.44,42.6666667 384,119.227947 384,213.333333 C384,307.43872 307.44,384 213.333333,384 Z M240.04672,128 C240.04672,143.46752 228.785067,154.666667 213.55008,154.666667 C197.698773,154.666667 186.713387,143.46752 186.713387,127.704107 C186.713387,112.5536 197.99616,101.333333 213.55008,101.333333 C228.785067,101.333333 240.04672,112.5536 240.04672,128 Z M192.04672,192 L234.713387,192 L234.713387,320 L192.04672,320 L192.04672,192 Z" id="Shape"> </path> </g> </g> </g>

</svg>
<svg viewBox="0 0 512 512" version="1.1" xmlns="http://www.w3.org/2000/svg" fill="#000000" stroke="#000000"><g id="SVGRepo_bgCarrier" stroke-width="0"></g><g id="SVGRepo_tracerCarrier" stroke-linecap="round" stroke-linejoin="round"></g><g id="SVGRepo_iconCarrier"> <title>about</title> <g id="Page-1" stroke="none" stroke-width="1" fill="none" fill-rule="evenodd"> <g id="about-white" fill="#a1a1a1" transform="translate(42.666667, 42.666667)"> <path d="M213.333333,3.55271368e-14 C95.51296,3.55271368e-14 3.55271368e-14,95.51168 3.55271368e-14,213.333333 C3.55271368e-14,331.153707 95.51296,426.666667 213.333333,426.666667 C331.154987,426.666667 426.666667,331.153707 426.666667,213.333333 C426.666667,95.51168 331.154987,3.55271368e-14 213.333333,3.55271368e-14 Z M213.333333,384 C119.227947,384 42.6666667,307.43872 42.6666667,213.333333 C42.6666667,119.227947 119.227947,42.6666667 213.333333,42.6666667 C307.44,42.6666667 384,119.227947 384,213.333333 C384,307.43872 307.44,384 213.333333,384 Z M240.04672,128 C240.04672,143.46752 228.785067,154.666667 213.55008,154.666667 C197.698773,154.666667 186.713387,143.46752 186.713387,127.704107 C186.713387,112.5536 197.99616,101.333333 213.55008,101.333333 C228.785067,101.333333 240.04672,112.5536 240.04672,128 Z M192.04672,192 L234.713387,192 L234.713387,320 L192.04672,320 L192.04672,192 Z" id="Shape"> </path> </g> </g> </g></svg>
<!-- car svg -->
<svg fill="#a1a1a5" viewBox="0 0 512 512" xmlns="http://www.w3.org/2000/svg" stroke="#a1a1a5"><g id="SVGRepo_bgCarrier" stroke-width="0"></g><g id="SVGRepo_tracerCarrier" stroke-linecap="round" stroke-linejoin="round"></g><g id="SVGRepo_iconCarrier"><title>ionicons-v5-h</title><path d="M488,224c-3-5-32.61-17.79-32.61-17.79,5.15-2.66,8.67-3.21,8.67-14.21,0-12-.06-16-8.06-16H428.86c-.11-.24-.23-.49-.34-.74-17.52-38.26-19.87-47.93-46-60.95C347.47,96.88,281.76,96,256,96s-91.47.88-126.49,18.31c-26.16,13-25.51,19.69-46,60.95,0,.11-.21.4-.4.74H55.94c-7.94,0-8,4-8,16,0,11,3.52,11.55,8.67,14.21C56.61,206.21,28,220,24,224s-8,32-8,80,4,96,4,96H31.94c0,14,2.06,16,8.06,16h80c6,0,8-2,8-16H384c0,14,2,16,8,16h82c4,0,6-3,6-16h12s4-49,4-96S491,229,488,224ZM125.26,268.94A516.94,516.94,0,0,1,70.42,272C50,272,49.3,273.31,47.86,260.56a72.16,72.16,0,0,1,.51-17.51L49,240h3c12,0,23.27.51,44.55,6.78a98,98,0,0,1,30.09,15.06C131,265,132,268,132,268Zm247.16,72L368,352H144s.39-.61-5-11.18c-4-7.82,1-12.82,8.91-15.66C163.23,319.64,208,304,256,304s93.66,13.48,108.5,21.16C370,328,376.83,330,372.42,341Zm-257-136.53a96.23,96.23,0,0,1-9.7.07c2.61-4.64,4.06-9.81,6.61-15.21,8-17,17.15-36.24,33.44-44.35,23.54-11.72,72.33-17,110.23-17s86.69,5.24,110.23,17c16.29,8.11,25.4,27.36,33.44,44.35,2.57,5.45,4,10.66,6.68,15.33-2,.11-4.3,0-9.79-.19Zm347.72,56.11C461,273,463,272,441.58,272a516.94,516.94,0,0,1-54.84-3.06c-2.85-.51-3.66-5.32-1.38-7.1a93.84,93.84,0,0,1,30.09-15.06c21.28-6.27,33.26-7.11,45.09-6.69a3.22,3.22,0,0,1,3.09,3A70.18,70.18,0,0,1,463.14,260.56Z"></path></g></svg>


<svg viewBox="0 0 24 24" fill="none" xmlns="http://www.w3.org/2000/svg"><g id="SVGRepo_bgCarrier" stroke-width="0"></g><g id="SVGRepo_tracerCarrier" stroke-linecap="round" stroke-linejoin="round"></g><g id="SVGRepo_iconCarrier"> <path fill-rule="evenodd" clip-rule="evenodd" d="M6.5 3.57143C5.78277 3.57143 4.77634 3.74256 4.09054 3.88071C4.00982 3.89696 3.94486 3.96042 3.93067 4.05126C3.79347 4.92993 3.58824 6.43203 3.58824 7.5C3.58824 8.56797 3.79347 10.0701 3.93067 10.9487C3.94486 11.0396 4.00982 11.103 4.09054 11.1193C4.77634 11.2574 5.78277 11.4286 6.5 11.4286C7.21723 11.4286 8.22366 11.2574 8.90946 11.1193C8.99018 11.103 9.05514 11.0396 9.06933 10.9487C9.20653 10.0701 9.41177 8.56797 9.41177 7.5C9.41177 6.43203 9.20653 4.92993 9.06933 4.05126C9.05514 3.96042 8.99018 3.89696 8.90946 3.88071C8.22366 3.74256 7.21723 3.57143 6.5 3.57143ZM3.77369 2.34087C4.46212 2.20219 5.60739 2 6.5 2C7.39261 2 8.53788 2.20219 9.22631 2.34087C9.9687 2.49041 10.5249 3.08082 10.6389 3.81133C10.7759 4.68826 11 6.29813 11 7.5C11 8.70187 10.7759 10.3117 10.6389 11.1887C10.5249 11.9192 9.9687 12.5096 9.22631 12.6591C8.53788 12.7978 7.39261 13 6.5 13C5.60739 13 4.46212 12.7978 3.77369 12.6591C3.0313 12.5096 2.47513 11.9192 2.36106 11.1887C2.22412 10.3117 2 8.70187 2 7.5C2 6.29813 2.22412 4.68826 2.36106 3.81133C2.47513 3.08082 3.0313 2.49041 3.77369 2.34087Z" fill="#a1a1a1"></path> <path fill-rule="evenodd" clip-rule="evenodd" d="M17.5 20.4286C16.7828 20.4286 15.7763 20.2574 15.0905 20.1193C15.0098 20.103 14.9449 20.0396 14.9307 19.9487C14.7935 19.0701 14.5882 17.568 14.5882 16.5C14.5882 15.432 14.7935 13.9299 14.9307 13.0513C14.9449 12.9604 15.0098 12.897 15.0905 12.8807C15.7763 12.7426 16.7828 12.5714 17.5 12.5714C18.2172 12.5714 19.2237 12.7426 19.9095 12.8807C19.9902 12.897 20.0551 12.9604 20.0693 13.0513C20.2065 13.9299 20.4118 15.432 20.4118 16.5C20.4118 17.568 20.2065 19.0701 20.0693 19.9487C20.0551 20.0396 19.9902 20.103 19.9095 20.1193C19.2237 20.2574 18.2172 20.4286 17.5 20.4286ZM14.7737 21.6591C15.4621 21.7978 16.6074 22 17.5 22C18.3926 22 19.5379 21.7978 20.2263 21.6591C20.9687 21.5096 21.5249 20.9192 21.6389 20.1887C21.7759 19.3117 22 17.7019 22 16.5C22 15.2981 21.7759 13.6883 21.6389 12.8113C21.5249 12.0808 20.9687 11.4904 20.2263 11.3409C19.5379 11.2022 18.3926 11 17.5 11C16.6074 11 15.4621 11.2022 14.7737 11.3409C14.0313 11.4904 13.4751 12.0808 13.3611 12.8113C13.2241 13.6883 13 15.2981 13 16.5C13 17.7019 13.2241 19.3117 13.3611 20.1887C13.4751 20.9192 14.0313 21.5096 14.7737 21.6591Z" fill="#a1a1a1"></path> <path fill-rule="evenodd" clip-rule="evenodd" d="M6.5 16.6154C5.73888 16.6154 4.66241 16.7965 3.98316 16.9294C3.90741 16.9443 3.86241 16.9941 3.84775 17.0469C3.71755 17.5158 3.58824 18.0994 3.58824 18.5C3.58824 18.9006 3.71755 19.4842 3.84775 19.9531C3.86241 20.0059 3.90741 20.0557 3.98316 20.0706C4.66241 20.2035 5.73888 20.3846 6.5 20.3846C7.26112 20.3846 8.33759 20.2035 9.01684 20.0706C9.09259 20.0557 9.13759 20.0059 9.15225 19.9531C9.28245 19.4842 9.41177 18.9006 9.41177 18.5C9.41177 18.0994 9.28245 17.5158 9.15225 17.0469C9.13759 16.9941 9.09259 16.9443 9.01684 16.9294C8.33759 16.7965 7.26112 16.6154 6.5 16.6154ZM3.68301 15.3432C4.36186 15.2103 5.57165 15 6.5 15C7.42835 15 8.63814 15.2103 9.31699 15.3432C9.95957 15.4689 10.4966 15.9447 10.6807 16.6079C10.8134 17.0857 11 17.857 11 18.5C11 19.143 10.8134 19.9143 10.6807 20.3921C10.4966 21.0553 9.95957 21.5311 9.31699 21.6568C8.63814 21.7897 7.42835 22 6.5 22C5.57165 22 4.36186 21.7897 3.68301 21.6568C3.04043 21.5311 2.50344 21.0553 2.31929 20.3921C2.18661 19.9143 2 19.143 2 18.5C2 17.857 2.18661 17.0857 2.31929 16.6079C2.50344 15.9447 3.04043 15.4689 3.68301 15.3432Z" fill="#a1a1a1"></path> <path fill-rule="evenodd" clip-rule="evenodd" d="M17.5 7.38462C16.7389 7.38462 15.6624 7.20353 14.9832 7.07057C14.9074 7.05575 14.8624 7.00592 14.8477 6.95312C14.7176 6.4842 14.5882 5.90057 14.5882 5.5C14.5882 5.09943 14.7176 4.5158 14.8477 4.04688C14.8624 3.99408 14.9074 3.94425 14.9832 3.92943C15.6624 3.79647 16.7389 3.61538 17.5 3.61538C18.2611 3.61538 19.3376 3.79647 20.0168 3.92943C20.0926 3.94425 20.1376 3.99408 20.1523 4.04688C20.2824 4.5158 20.4118 5.09943 20.4118 5.5C20.4118 5.90057 20.2824 6.4842 20.1523 6.95312C20.1376 7.00592 20.0926 7.05575 20.0168 7.07057C19.3376 7.20353 18.2611 7.38462 17.5 7.38462ZM14.683 8.65685C15.3619 8.78973 16.5717 9 17.5 9C18.4283 9 19.6381 8.78973 20.317 8.65685C20.9596 8.53107 21.4966 8.05534 21.6807 7.39214C21.8134 6.91427 22 6.14299 22 5.5C22 4.85701 21.8134 4.08573 21.6807 3.60786C21.4966 2.94466 20.9596 2.46893 20.317 2.34315C19.6381 2.21027 18.4283 2 17.5 2C16.5717 2 15.3619 2.21027 14.683 2.34315C14.0404 2.46893 13.5034 2.94466 13.3193 3.60786C13.1866 4.08573 13 4.85701 13 5.5C13 6.14299 13.1866 6.91427 13.3193 7.39214C13.5034 8.05534 14.0404 8.53107 14.683 8.65685Z" fill="#a1a1a1"></path> </g></svg>







<svg fill="#a1a1a1" version="1.1" id="XMLID_276_" xmlns="http://www.w3.org/2000/svg" xmlns:xlink="http://www.w3.org/1999/xlink" viewBox="0 0 24 24" xml:space="preserve" stroke="#a1a1a1"><g id="SVGRepo_bgCarrier" stroke-width="0"></g><g id="SVGRepo_tracerCarrier" stroke-linecap="round" stroke-linejoin="round"></g><g id="SVGRepo_iconCarrier"> <g id="contact-us"> <g> <path d="M4,24v-5H0V0h23v19h-9.3L4,24z M2,17h4v3.7l7.3-3.7H21V2H2V17z"></path> </g> <g> <rect x="5" y="8" width="3" height="3"></rect> </g> <g> <rect x="10" y="8" width="3" height="3"></rect> </g> <g> <rect x="15" y="8" width="3" height="3"></rect> </g> </g> </g></svg>